<svg xmlns="http://www.w3.org/2000/svg" width="75" height="75" viewBox="0 0 75 75">
  <g id="Grupo_1106433" data-name="Grupo 1106433" transform="translate(-215.456 -5448)">
    <g id="descargar-pdf" transform="translate(215.456 5448.109)">
      <g id="Grupo_1106422" data-name="Grupo 1106422" transform="translate(0 -0.109)">
        <g id="Grupo_1106421" data-name="Grupo 1106421">
          <g id="Grupo_1106420" data-name="Grupo 1106420">
            <g id="Grupo_1106419" data-name="Grupo 1106419">
              <g id="Grupo_1106418" data-name="Grupo 1106418">
                <g id="Grupo_1106417" data-name="Grupo 1106417">
                  <circle id="Elipse_11534" data-name="Elipse 11534" cx="37.5" cy="37.5" r="37.5" transform="translate(0 0)" fill="#78988c"/>
                </g>
              </g>
            </g>
          </g>
        </g>
      </g>
      <path id="Trazado_891704" data-name="Trazado 891704" d="M170.092,202.252l-17.033-17.033-40.87,17.547L124.021,214.6l-10.62,4.759,13.064,13.064a37.5,37.5,0,0,0,43.628-30.169Z" transform="translate(-95.775 -158.14)" fill="#3b574d"/>
      <g id="Grupo_1106423" data-name="Grupo 1106423" transform="translate(17.626 11.072)">
        <path id="Trazado_891705" data-name="Trazado 891705" d="M148.314,85.059l-.538.022-3.654-9.267H120.471V125.96h39.658V91.822Z" transform="translate(-120.471 -75.815)" fill="#fff"/>
      </g>
      <g id="Grupo_1106424" data-name="Grupo 1106424" transform="translate(37.403 11.072)">
        <path id="Trazado_891706" data-name="Trazado 891706" d="M275.525,91.822,263.71,85.059l-.538.022-3.654-9.267h-3.874V125.96h19.881Z" transform="translate(-255.644 -75.815)" fill="#e9edf5"/>
      </g>
      <g id="Grupo_1106425" data-name="Grupo 1106425" transform="translate(41.278 11.072)">
        <path id="Trazado_891707" data-name="Trazado 891707" d="M282.125,91.822h16.007L282.125,75.815Z" transform="translate(-282.125 -75.815)" fill="#bec3d2"/>
      </g>
      <g id="Grupo_1106426" data-name="Grupo 1106426" transform="translate(16.414 28.589)">
        <path id="Trazado_891708" data-name="Trazado 891708" d="M112.189,195.541h27.287v16.037H112.189Z" transform="translate(-112.189 -195.541)" fill="#d74b49"/>
      </g>
      <g id="Grupo_1106427" data-name="Grupo 1106427" transform="translate(37.403 28.589)">
        <path id="Trazado_891709" data-name="Trazado 891709" d="M255.644,195.541h6.3v16.037h-6.3Z" transform="translate(-255.644 -195.541)" fill="#ac0514"/>
      </g>
      <g id="Grupo_1106429" data-name="Grupo 1106429" transform="translate(18.437 32.533)">
        <g id="Grupo_1106428" data-name="Grupo 1106428">
          <path id="Trazado_891710" data-name="Trazado 891710" d="M126.014,230.912V222.5h4.214a2.8,2.8,0,1,1,0,5.59h-2.044v2.826Zm4.934-5.615a.9.9,0,0,0-1.009-.909h-1.754v1.8h1.754A.9.9,0,0,0,130.948,225.3Z" transform="translate(-126.014 -222.496)" fill="#fff"/>
          <path id="Trazado_891711" data-name="Trazado 891711" d="M181.469,230.912V222.5H185c2.65,0,4.555,1.59,4.555,4.2s-1.905,4.214-4.542,4.214Zm5.867-4.214a2.155,2.155,0,0,0-2.322-2.309h-1.375v4.631H185A2.235,2.235,0,0,0,187.336,226.7Z" transform="translate(-173.355 -222.496)" fill="#fff"/>
          <path id="Trazado_891712" data-name="Trazado 891712" d="M244.169,230.912V222.5h6.17v1.893h-4V225.7h3.912v1.893h-3.912v3.319Z" transform="translate(-226.882 -222.496)" fill="#fff"/>
        </g>
        <path id="Trazado_891713" data-name="Trazado 891713" d="M260.135,224.389V222.5h-4.491v8.416h.491v-3.319h3.912V225.7h-3.912v-1.312Z" transform="translate(-236.678 -222.496)" fill="#e9edf5"/>
      </g>
      <g id="Grupo_1106430" data-name="Grupo 1106430" transform="translate(44.607 38.869)">
        <path id="Trazado_891714" data-name="Trazado 891714" d="M321.345,279.527V265.8H310.431v13.728h-5.554l11.011,12.822L326.9,279.527Z" transform="translate(-304.877 -265.799)" fill="#567e6f"/>
      </g>
      <g id="Grupo_1106431" data-name="Grupo 1106431" transform="translate(55.618 38.869)">
        <path id="Trazado_891715" data-name="Trazado 891715" d="M385.592,279.527V265.8h-5.457v26.55l11.011-12.822Z" transform="translate(-380.135 -265.799)" fill="#dce4e1"/>
      </g>
    </g>
  </g>
</svg>
